{"title":"Homefront 2013 DVDRip Xvid AC3 LKRG","uid":10187741,"size":1154715351,"categoryP":"video","categoryS":"movies","magnet":"?xt=urn:btih:596cec5cd962544014862af2ea7b09e46cd2cfda&amp;dn=Homefront+2013+DVDRip+Xvid+AC3+LKRG&amp;tr=udp%3A%2F%2Ftracker.openbittorrent.com%3A80&amp;tr=udp%3A%2F%2Fopen.demonii.com%3A1337&amp;tr=udp%3A%2F%2Ftracker.coppersurfer.tk%3A6969&amp;tr=udp%3A%2F%2Fexodus.desync.com%3A6969","seeders":2,"leechers":3,"uploader":".BONE.","files":2,"time":1400602161,"description":"PLOT\n\nA former DEA agent moves his family to a quiet town, where he soon tangles with a local meth\ndruglord.\n\nRuntime ..........: 1h 40mn\nFile Size ........: 1.08 GB\nResolution .......: 720 x 352 &lt;a href=&quot;\nhttp://www.imdb.com/title/tt2312718/&quot; rel=&quot;nofollow&quot; target=&quot;_NEW&quot;&gt;\nhttp://www.imdb.com/title/tt2312718/&lt;/a&gt;\nGenre ............: Action,Crime,Thriller\nLanguage .........: English\nSubtitles ........: None\nComplete name : Homefront 2013 DVDRip Xvid AC3 LKRGHF_LKRG.avi\nFormat : AVI\nFormat/Info : Audio Video Interleave\nFile size : 1.08 GiB\nDuration : 1h 40mn\nOverall bit rate : 1 531 Kbps\nWriting application : VirtualDubMod 1.5.10.2 (build 2540/release)\nWriting library : VirtualDubMod build 2540/release\nVideo\nID : 0\nFormat : MPEG-4 Visual\nFormat profile : Advanced Simple@L5\nFormat settings, BVOP : 2\nFormat settings, QPel : No\nFormat settings, GMC : No warppoints\nFormat settings, Matrix : Default (H.263)\nMuxing mode : Packed bitstream\nCodec ID : XVID\nCodec ID/Hint : XviD\nDuration : 1h 40mn\nBit rate : 1 073 Kbps\nWidth : 720 pixels\nHeight : 352 pixels\nDisplay aspect ratio : 6.294\nFrame rate : 23.976 fps\nColor space : YUV\nChroma subsampling : 4:2:0\nBit depth : 8 bits\nScan type : Progressive\nCompression mode : Lossy\nBits/(Pixel*Frame) : 0.177\nStream size : 772 MiB (70%)\nWriting library : XviD 1.2.1 (UTC 2008-12-04)\nAudio\nID : 1\nFormat : AC-3\nFormat/Info : Audio Coding 3\nMode extension : CM (complete main)\nFormat settings, Endianness : Big\nCodec ID : 2000\nDuration : 1h 40mn\nBit rate mode : Constant\nBit rate : 448 Kbps\nChannel(s) : 6 channels\nChannel positions : Front: L C R, Side: L R, LFE\nSampling rate : 48.0 KHz\nBit depth : 16 bits\nCompression mode : Lossy\nStream size : 322 MiB (29%)\nAlignment : Split accross interleaves\nInterleave, duration : 42 ms (1.00 video frame)\nInterleave, preload duration : 500 ms\n\n","torrent":{"xt":"urn:btih:596cec5cd962544014862af2ea7b09e46cd2cfda","amp;dn":"Homefront+2013+DVDRip+Xvid+AC3+LKRG","amp;tr":["udp%3A%2F%2Ftracker.openbittorrent.com%3A80","udp%3A%2F%2Fopen.demonii.com%3A1337","udp%3A%2F%2Ftracker.coppersurfer.tk%3A6969","udp%3A%2F%2Fexodus.desync.com%3A6969"],"infoHash":"596cec5cd962544014862af2ea7b09e46cd2cfda","infoHashBuffer":{"type":"Buffer","data":[89,108,236,92,217,98,84,64,20,134,42,242,234,123,9,228,108,210,207,218]},"announce":[],"urlList":[]}}